# xmcd
#
# Track frame offsets: 
#        150
#        25432
#        34245
#        45975
#        64175
#        78132
#        91050
#        105847
#        119180
#        137995
#        153135
#        168667
#        184632
#
# Disc length: 2878 seconds
#
# Revision: 1
# Processed by: cddbd v1.5.2PL0 Copyright (c) Steve Scherf et al.
# Submitted via: ExactAudioCopy v0.99pb5
#
DISCID=a10b3c0d
DTITLE=Alfredo Zitarrosa - Zitarrosa  Antología 3   (1936 - 1989)
DYEAR=1994
DGENRE=Folklore
TTITLE0=Adagio En Mi Pais
TTITLE1=Pa'l Que Se Va
TTITLE2=A Jose Artigas
TTITLE3=A Jose Artigas
TTITLE4=Cancion "De Que"
TTITLE5=De Corrales A Tranqueras
TTITLE6=Chamarrita De Los Milicos
TTITLE7=Muchacha Campesina
TTITLE8=Chamarrita De Una Bailanta
TTITLE9=Explicacion De Mi Amor
TTITLE10=Dile A La Vida
TTITLE11=Los Gauchos Judios
TTITLE12=Camdombe Del Olvido
EXTD=
EXTT0=
EXTT1=
EXTT2=
EXTT3=
EXTT4=
EXTT5=
EXTT6=
EXTT7=
EXTT8=
EXTT9=
EXTT10=
EXTT11=
EXTT12=
PLAYORDER=
